PathFileType	4	(X/Y/Z)	4_coords_data.trc
DataRate	CameraRate	NumFrames	NumMarkers	Units	OrigDataRate	OrigDataStartFrame	OrigNumFrames
30.0	30.0	8	21	m	30.0	1	57
Frame#	Time	THUMB_TIP	THUMB_IP	THUMB_MCP	THUMB_CMC	INDEX_TIP	INDEX_DIP	INDEX_PIP	INDEX_MCP	MIDDLE_TIP	MIDDLE_DIP	MIDDLE_PIP	MIDDLE_MCP	RING_TIP	RING_DIP	RING_PIP	RING_MCP	PINKY_TIP	PINKY_DIP	PINKY_PIP	PINKY_MCP	WRIST
X1	Y1	Z1	X2	Y2	Z2	X3	Y3	Z3	X4	Y4	Z4	X5	Y5	Z5	X6	Y6	Z6	X7	Y7	Z7	X8	Y8	Z8	X9	Y9	Z9	X10	Y10	Z10	X11	Y11	Z11	X12	Y12	Z12	X13	Y13	Z13	X14	Y14	Z14	X15	Y15	Z15	X16	Y16	Z16	X17	Y17	Z17	X18	Y18	Z18	X19	Y19	Z19	X20	Y20	Z20	X21	Y21	Z21
0	0.0	-0.04668429946899414	-0.13301499938964845	1.0473299560546876	-0.04896020126342773	-0.10333499908447266	1.0548599853515626	-0.06815689849853515	-0.08331929779052734	1.0716300048828125	-0.07207820129394531	-0.04514849853515625	1.08893994140625	-0.022590299606323243	-0.09131279754638671	0.95218701171875	-0.03843209838867188	-0.08426360321044922	0.9692219848632813	-0.0459197998046875	-0.07480439758300782	0.9899420166015624	-0.06744020080566407	-0.05983489990234375	1.024989990234375	-0.022568199157714845	-0.028752500534057618	0.9274080200195313	-0.036584300994873045	-0.03051409912109375	0.95347900390625	-0.048564899444580076	-0.03252410125732422	0.9836220092773438	-0.07171559906005859	-0.03557440185546875	1.019260009765625	-0.022428699493408203	0.020325199127197265	0.9390590209960937	-0.036427799224853515	0.012079099655151367	0.9605239868164063	-0.0482667007446289	0.003765700101852417	0.9874520263671875	-0.0658198013305664	-0.009648460388183594	1.0238699951171875	-0.021175100326538087	0.06631069946289063	0.9931829833984375	-0.033787300109863284	0.051030399322509766	1.0050700073242187	-0.04473529815673828	0.036107799530029294	1.0135399780273437	-0.06130950164794922	0.011119400024414063	1.0269300537109376	-0.10401100158691406	-0.014796600341796876	1.1089300537109374
1	0.03333333333333333	-0.04679460144042969	-0.13281100463867188	1.0468699951171876	-0.04921179962158203	-0.10528900146484375	1.0544599609375	-0.06814949798583984	-0.08510469818115235	1.07225	-0.07363379669189453	-0.047244800567626956	1.085780029296875	-0.023483299255371095	-0.09238159942626953	0.9522470092773437	-0.03710599899291992	-0.08528160095214844	0.9686060180664062	-0.04753110122680664	-0.07642639923095704	0.9895260009765625	-0.068181396484375	-0.06099570083618164	1.0233300170898438	-0.02363279914855957	-0.03044289970397949	0.9264080200195313	-0.03589630126953125	-0.031687299728393556	0.9502960205078125	-0.04791370010375977	-0.03357300186157226	0.9786530151367188	-0.07016380310058594	-0.035108898162841795	1.0169500122070312	-0.02350309944152832	0.018766000747680665	0.9380009765625	-0.036069698333740234	0.011587800025939942	0.959219970703125	-0.04667589950561524	0.002511509895324707	0.9841599731445313	-0.06319100189208984	-0.010815500259399414	1.01975	-0.021680099487304687	0.06447669982910156	0.9919959716796874	-0.03375870132446289	0.050043899536132815	1.003	-0.04507939910888672	0.03558449935913086	1.0125800170898438	-0.060902099609375	0.011156200408935547	1.027719970703125	-0.102447998046875	-0.016656200408935548	1.1038599853515625
2	0.06666666666666667	-0.046802101135253904	-0.1329499969482422	1.0459100341796874	-0.04923789978027344	-0.10544999694824218	1.0535699462890624	-0.06804209899902344	-0.08542949676513673	1.071300048828125	-0.07360169982910156	-0.04747999954223633	1.0849599609375	-0.0235856990814209	-0.09230860137939453	0.9512630004882813	-0.03722930145263672	-0.08524240112304687	0.9676619873046876	-0.04761489868164062	-0.07647100067138672	0.9886680297851562	-0.06836170196533203	-0.061224700927734375	1.0225399780273436	-0.024000099182128906	-0.030142099380493163	0.9255460205078125	-0.03614149856567383	-0.031496999740600586	0.9494530029296875	-0.048083999633789065	-0.033515701293945314	0.9777559814453125	-0.07014150238037109	-0.03533929824829102	1.0160700073242188	-0.02363599967956543	0.01896339988708496	0.9373809814453125	-0.03623820114135742	0.011668999671936036	0.9585679931640625	-0.046835098266601566	0.002501250028610229	0.9835150146484375	-0.06341329956054688	-0.010896200180053712	1.0189299926757813	-0.0216653995513916	0.06441010284423829	0.991614990234375	-0.03381539916992188	0.04994810104370117	1.00247998046875	-0.04517580032348633	0.03551649856567383	1.0119400024414062	-0.061020301818847655	0.010981499671936035	1.0270799560546875	-0.10267400360107422	-0.016996400833129883	1.103050048828125
3	0.1	-0.047569198608398436	-0.13335699462890624	1.0455999755859375	-0.049947200775146486	-0.10583499908447265	1.0531700439453124	-0.06866940307617188	-0.08577059936523437	1.0708399658203125	-0.07416089630126953	-0.04780849838256836	1.084530029296875	-0.024151100158691406	-0.09279049682617188	0.9508779907226562	-0.03776300048828125	-0.0856937026977539	0.967176025390625	-0.048132099151611325	-0.0768915023803711	0.988208984375	-0.06881490325927735	-0.061576698303222654	1.0220399780273437	-0.024123600006103516	-0.030527000427246095	0.9251680297851562	-0.03637699890136719	-0.031876699447631836	0.9490469970703125	-0.048347599029541014	-0.03390230178833008	0.9773579711914062	-0.07047959899902344	-0.035673999786376955	1.015530029296875	-0.023337200164794923	0.018308900833129884	0.9371060180664063	-0.036029499053955076	0.011106200218200683	0.9582630004882813	-0.04678039932250976	0.002009510040283203	0.9832009887695312	-0.06365570068359375	-0.01131820011138916	1.0186500244140626	-0.021101900100708008	0.06379299926757813	0.9914810180664062	-0.03339020156860351	0.04941279983520508	1.00225	-0.04494290161132813	0.035005401611328125	1.0116799926757813	-0.061109500885009764	0.01054069995880127	1.0266700439453125	-0.1030970001220703	-0.017090200424194336	1.1028299560546875
4	0.13333333333333333	-0.04809619903564453	-0.13400900268554689	1.045719970703125	-0.05044120025634766	-0.10656700134277344	1.0533399658203124	-0.06922460174560546	-0.08644879913330078	1.070989990234375	-0.07460870361328124	-0.0484005012512207	1.0845999755859375	-0.024761499404907225	-0.09362539672851562	0.9509630126953125	-0.038342098236083984	-0.08655719757080078	0.9672849731445312	-0.048667198181152345	-0.07768350219726562	0.9882589721679688	-0.06920929718017578	-0.06227510070800781	1.0221699829101563	-0.024798999786376952	-0.031421600341796876	0.9250980224609375	-0.03697029876708984	-0.03272079849243164	0.9490050048828125	-0.048932701110839846	-0.03473300170898438	0.9772680053710937	-0.07073670196533204	-0.0364297981262207	1.0153499755859374	-0.023817800521850587	0.017238500595092774	0.9369749755859375	-0.03645529937744141	0.010116700172424317	0.958302978515625	-0.04723080062866211	0.001156350016593933	0.9831480102539063	-0.06412629699707031	-0.012003899574279785	1.0186900024414063	-0.021286100387573243	0.06283399963378906	0.9913679809570313	-0.03369820022583008	0.04853139877319336	1.0021699829101562	-0.04530870056152344	0.03418059921264648	1.0116300048828124	-0.06151679992675781	0.009745599746704102	1.02681005859375	-0.10323500061035157	-0.017669700622558595	1.1025799560546874
5	0.16666666666666666	-0.04819580078125	-0.13449000549316406	1.04581005859375	-0.050625598907470704	-0.10708499908447265	1.0533699951171875	-0.06947609710693359	-0.08695700073242188	1.0710999755859374	-0.074935302734375	-0.04898910140991211	1.0846300048828126	-0.024873699188232422	-0.09403140258789063	0.9510549926757812	-0.03849769973754883	-0.0869927978515625	0.9674019775390625	-0.04883300018310547	-0.07812680053710938	0.9883989868164063	-0.06944850158691407	-0.06274959945678711	1.0222000122070312	-0.025132200241088868	-0.03152820014953613	0.9251300048828125	-0.03725090026855469	-0.03295259857177734	0.9490999755859375	-0.04915060043334961	-0.03504190063476562	0.9773579711914062	-0.07128970336914063	-0.03690250015258789	1.015719970703125	-0.023876699447631836	0.01693499946594238	0.937302978515625	-0.036610198974609376	0.009775580406188965	0.958573974609375	-0.04748160171508789	0.000738511025905609	0.9833350219726562	-0.06449349975585937	-0.012484199523925781	1.01877001953125	-0.02146579933166504	0.062332298278808596	0.9917750244140625	-0.03400400161743164	0.04808039855957031	1.002489990234375	-0.0456677017211914	0.03374530029296875	1.0118699951171874	-0.06194430160522461	0.009291150093078614	1.0269599609375	-0.10386599731445313	-0.018268600463867187	1.10277001953125
6	0.2	-0.04818730163574219	-0.1342239990234375	1.04572998046875	-0.05080830001831055	-0.10681700134277344	1.0533499755859375	-0.06969770050048828	-0.08681069946289062	1.0711400146484376	-0.07505590057373047	-0.04888560104370117	1.08468994140625	-0.025100200653076173	-0.09405539703369141	0.9510440063476563	-0.03873329925537109	-0.08702950286865234	0.9673489990234375	-0.049105998992919925	-0.07813939666748047	0.9883699951171875	-0.06974120330810547	-0.06271979904174804	1.0221699829101563	-0.02552079963684082	-0.03153499984741211	0.9249739990234375	-0.03762779998779297	-0.03298500061035156	0.9489439697265625	-0.04954309844970703	-0.03506150054931641	0.97722900390625	-0.07151609802246094	-0.03683890151977539	1.0155800170898437	-0.023984899520874025	0.01679129981994629	0.9372160034179687	-0.03676779937744141	0.009681790351867677	0.9584650268554687	-0.047667900085449216	0.000683441996574401	0.983197998046875	-0.06459470367431641	-0.012511199951171875	1.0185599975585937	-0.02149329948425293	0.062199199676513675	0.9916909790039062	-0.034099998474121096	0.04802690124511719	1.0023499755859375	-0.04583459854125976	0.03373749923706055	1.0116799926757813	-0.06216759872436523	0.009349209785461426	1.0268800048828124	-0.10401100158691406	-0.018215299606323242	1.10256005859375
7	0.23333333333333334	-0.048598098754882815	-0.13383999633789062	1.0453699951171875	-0.05129830169677734	-0.10645200347900391	1.0530999755859376	-0.07021029663085937	-0.08651499938964843	1.0709300537109374	-0.07558509826660156	-0.048530399322509764	1.0843699951171875	-0.02568269920349121	-0.09383640289306641	0.950875	-0.039333999633789064	-0.08683809661865234	0.9671160278320312	-0.04970949935913086	-0.07796289825439454	0.9881290283203125	-0.07042120361328125	-0.06256480026245118	1.0219299926757812	-0.02628610038757324	-0.03146310043334961	0.9245819702148438	-0.03840890121459961	-0.03286249923706055	0.94856201171875	-0.050206600189208986	-0.034900100708007815	0.9769249877929688	-0.07212329864501953	-0.03663249969482422	1.0153800048828125	-0.024574600219726562	0.016707300186157226	0.9367949829101563	-0.03740230178833008	0.009680279731750488	0.9579180297851563	-0.0482958984375	0.000783860027790069	0.982822021484375	-0.06541529846191406	-0.012263099670410156	1.0183800048828124	-0.021915199279785157	0.062248199462890626	0.9911799926757813	-0.03463970184326172	0.048126800537109375	1.0018499755859376	-0.04641659927368164	0.03389569854736328	1.011219970703125	-0.06271640014648437	0.009564129829406739	1.02631005859375	-0.10439499664306641	-0.017910999298095705	1.102280029296875
